<?xml version="1.0" encoding="utf-8"?>
<!-- Generator: Adobe Illustrator 24.2.1, SVG Export Plug-In . SVG Version: 6.00 Build 0)  -->
<svg version="1.1" xmlns="http://www.w3.org/2000/svg" xmlns:xlink="http://www.w3.org/1999/xlink" x="0px" y="0px"
	 viewBox="0 0 512 512" style="enable-background:new 0 0 512 512;" xml:space="preserve">
<style type="text/css">
	.st0{fill:#48466D;}
	.st1{fill:#ABEDD8;}
	.st2{fill:#46CDCF;}
	.st3{fill:#3D84A8;}
	.st4{fill:none;stroke:#FFFFFF;stroke-width:20;stroke-linecap:round;stroke-linejoin:round;stroke-miterlimit:10;}
</style>
<g id="Layer_1_copy">
	<g id="XMLID_2_">
		<g>
			<g>
				<g>
					<path class="st0" d="M511.9,234.6c1.9,24.2-15.2,45.7-38,48c-17.5,1.8-33.3-8.3-40.6-23.9l-20.7,1.8l-15.7,7.6
						c-3.6,1.7-6,5.1-6.5,9.1c-1.5,10.6-4.2,20.8-7.9,30.5c-1.3,3.3-1,7,0.7,10l5.6,10l15.5,10.4c8.2-3.1,17.7-2.4,25.5,2.9
						c13.3,8.9,16.5,27.2,6.6,40.1c-8.5,11.1-24.3,14.2-36.3,7c-7.7-4.5-12.3-12.1-13.4-20.1l-17.2-11.5l-10.8-1.3
						c-3.7-0.5-7.4,0.8-10.1,3.4c-9.1,8.7-19.4,16.2-30.7,22.1c-3.8,2-6.2,5.9-6.5,10.1l-1.4,21.9l6.8,27
						c11.6,3.2,21.2,12.4,24.3,24.9c4.8,18.9-7,38-26.1,42.3c-17.3,3.8-35-6.2-40.4-23c-4.3-13.1-0.3-26.7,8.7-35.6l-6.8-27.2
						l-10.6-17c-2.8-4.6-7.8-7.2-13.2-7.2h-0.1c-9.2,0-18.3-0.9-27-2.6c-5.2-1-10.6,0.6-14.2,4.5l-13.9,14.7l-15.6,32.4
						c3.7,7.4,4,16.4,0.1,24.4c-7,14.4-24.7,20.1-38.9,12.2c-12.1-6.8-17.4-21.9-12.1-34.8c3.6-8.8,11.1-14.7,19.5-16.6l15.7-32.6
						l3.1-21.9c0.6-4-1-8.1-4.2-10.7c-12.5-10.1-23.2-22.4-31.6-36.2c-2.1-3.4-5.8-5.5-9.8-5.5l-21.9-0.2l-23.9,7.5
						c-1.7,14.9-11.9,28.1-27.1,32.9c-20.4,6.4-42.2-4.8-48.8-25.1c-6.6-20.3,4.6-42.5,24.8-49.2c14.2-4.7,29.1-0.8,39.2,8.8l25.4-8
						l18.5-13.2c2.8-2,4.2-5.2,4-8.6c-0.3-3.7-0.5-7.5-0.5-11.3c0-20.7,4.5-40.3,12.7-57.9c1.2-2.6,1.2-5.6-0.1-8.1l-5.5-11.2
						l-14.9-11.3c-8.3,2.7-17.8,1.4-25.3-4.3c-12.8-9.6-14.9-28.1-4.4-40.4c9.1-10.6,25-12.8,36.7-5c7.4,5,11.6,12.7,12.3,20.9
						l16.5,12.5l16.7,3c12.1-11.3,26.2-20.4,41.8-26.8l3.9-23.8l-4.9-24.5C184,77,172.2,65.8,169,50.9c-4.5-21.1,10-41.6,32.4-45.8
						s44.2,9.4,48.7,30.5c3.4,15.8-3.9,31.2-17.1,39.8l4.7,23.1l11.4,18.3c0.8,1.2,2.1,1.9,3.5,1.9l0,0c26.2,0,50.7,7.3,71.7,19.9
						c1.2,0.7,2.6,0.8,3.8,0.2l17.9-8.3l20.9-22.6c-1.3-8.1,1.1-16.7,7.1-23.2c10.9-11.7,29.5-12,40.7-0.3
						c9.8,10.3,10.2,26.7,0.9,37.5c-6,7-14.7,10.2-23.2,9.5L371.3,154l-6.8,18.3c-0.5,1.3-0.3,2.7,0.5,3.8
						c8.3,11.3,14.8,23.9,19.4,37.5c1.3,3.7,4.2,6.6,8,7.7l17,4.8l22.1-2c5.4-15.6,19-27.5,35.6-29.1
						C490,192.6,510,210.4,511.9,234.6L511.9,234.6z"/>
				</g>
			</g>
		</g>
	</g>
	<g id="XMLID_1_">
		<g>
			<g>
				<g>
					<circle class="st1" cx="252.5" cy="257.8" r="103"/>
				</g>
			</g>
		</g>
	</g>
	<path class="st2" d="M180.8,257.8c0-51.6,37.9-94.3,87.3-101.9c-5.1-0.8-10.4-1.2-15.7-1.2c-56.9,0-103,46.1-103,103
		s46.1,103,103,103c5.3,0,10.6-0.4,15.7-1.2C218.7,352.1,180.8,309.4,180.8,257.8L180.8,257.8z"/>
	<g>
		<g>
			<g>
				<circle class="st3" cx="79.1" cy="41.1" r="29.3"/>
				<circle class="st3" cx="71.1" cy="427.9" r="19.4"/>
				<circle class="st3" cx="426.9" cy="459.8" r="28.5"/>
				<circle class="st3" cx="220.8" cy="229.4" r="26.6"/>
				
					<ellipse transform="matrix(0.3162 -0.9487 0.9487 0.3162 -130.4733 443.1801)" class="st3" cx="242.2" cy="312.1" rx="18.1" ry="18.1"/>
				<circle class="st3" cx="299.1" cy="257.8" r="15.2"/>
			</g>
		</g>
	</g>
	<g id="Layer_2_2_">
	</g>
	
		<image style="overflow:visible;enable-background:new    ;" width="195" height="217" xlink:href="5AF3459E.jpg"  transform="matrix(0.9952 0 0 0.9952 539.4719 32.5252)">
	</image>
</g>
<g id="Layer_1">
	<g id="XMLID_107_">
		<g>
			<g>
				<g>
					<path class="st4" d="M79.9-346.4c1.9,24.2-15.2,45.7-38,48c-17.5,1.8-33.3-8.3-40.6-23.9l-20.7,1.8l-15.7,7.6
						c-3.6,1.7-6,5.1-6.5,9.1c-1.5,10.6-4.2,20.8-7.9,30.5c-1.3,3.3-1,7,0.7,10l5.6,10l15.5,10.4c8.2-3.1,17.7-2.4,25.5,2.9
						c13.3,8.9,16.5,27.2,6.6,40.1c-8.5,11.1-24.3,14.2-36.3,7c-7.7-4.5-12.3-12.1-13.4-20.1l-17.2-11.5l-10.8-1.3
						c-3.7-0.5-7.4,0.8-10.1,3.4c-9.1,8.7-19.4,16.2-30.7,22.1c-3.8,2-6.2,5.9-6.5,10.1l-1.4,21.9l6.8,27
						c11.6,3.2,21.2,12.4,24.3,24.9c4.8,18.9-7,38-26.1,42.3c-17.3,3.8-35-6.2-40.4-23c-4.3-13.1-0.3-26.7,8.7-35.6l-6.8-27.2
						l-10.6-17c-2.8-4.6-7.8-7.2-13.2-7.2h-0.1c-9.2,0-18.3-0.9-27-2.6c-5.2-1-10.6,0.6-14.2,4.5l-13.9,14.7l-15.6,32.4
						c3.7,7.4,4,16.4,0.1,24.4c-7,14.4-24.7,20.1-38.9,12.2c-12.1-6.8-17.4-21.9-12.1-34.8c3.6-8.8,11.1-14.7,19.5-16.6l15.7-32.6
						l3.1-21.9c0.6-4-1-8.1-4.2-10.7c-12.5-10.1-23.2-22.4-31.6-36.2c-2.1-3.4-5.8-5.5-9.8-5.5l-21.9-0.2l-23.9,7.5
						c-1.7,14.9-11.9,28.1-27.1,32.9c-20.4,6.4-42.2-4.8-48.8-25.1s4.6-42.5,24.8-49.2c14.2-4.7,29.1-0.8,39.2,8.8l25.4-8l18.5-13.2
						c2.8-2,4.2-5.2,4-8.6c-0.3-3.7-0.5-7.5-0.5-11.3c0-20.7,4.5-40.3,12.7-57.9c1.2-2.6,1.2-5.6-0.1-8.1l-5.5-11.2l-14.9-11.3
						c-8.3,2.7-17.8,1.4-25.3-4.3c-12.8-9.6-14.9-28.1-4.4-40.4c9.1-10.6,25-12.8,36.7-5c7.4,5,11.6,12.7,12.3,20.9l16.5,12.5
						l16.7,3c12.1-11.3,26.2-20.4,41.8-26.8l3.9-23.8l-4.9-24.5c-14.9-3.9-26.7-15.1-29.9-30c-4.5-21.1,10-41.6,32.4-45.8
						s44.2,9.4,48.7,30.5c3.4,15.8-3.9,31.2-17.1,39.8l4.7,23.1l11.4,18.3c0.8,1.2,2.1,1.9,3.5,1.9l0,0c26.2,0,50.7,7.3,71.7,19.9
						c1.2,0.7,2.6,0.8,3.8,0.2l17.9-8.3l20.9-22.6c-1.3-8.1,1.1-16.7,7.1-23.2c10.9-11.7,29.5-12,40.7-0.3
						c9.8,10.3,10.2,26.7,0.9,37.5c-6,7-14.7,10.2-23.2,9.5L-60.7-427l-6.8,18.3c-0.5,1.3-0.3,2.7,0.5,3.8
						c8.3,11.3,14.8,23.9,19.4,37.5c1.3,3.7,4.2,6.6,8,7.7l17,4.8l22.1-2c5.4-15.6,19-27.5,35.6-29.1C58-388.4,78-370.6,79.9-346.4
						L79.9-346.4z"/>
				</g>
			</g>
		</g>
	</g>
	<g id="XMLID_8_">
		<g>
			<g>
				<g>
					<circle class="st4" cx="-179.5" cy="-323.2" r="103"/>
				</g>
			</g>
		</g>
	</g>
	<path class="st4" d="M-251.2-323.2c0-51.6,37.9-94.3,87.3-101.9c-5.1-0.8-10.4-1.2-15.7-1.2c-56.9,0-103,46.1-103,103
		s46.1,103,103,103c5.3,0,10.6-0.4,15.7-1.2C-213.3-228.9-251.2-271.6-251.2-323.2L-251.2-323.2z"/>
	<g>
		<g>
			<g>
				<circle class="st4" cx="-352.9" cy="-539.9" r="29.3"/>
				<circle class="st4" cx="-360.9" cy="-153.1" r="19.4"/>
				<circle class="st4" cx="-5.1" cy="-121.2" r="28.5"/>
				<circle class="st4" cx="-211.2" cy="-351.6" r="26.6"/>
				
					<ellipse transform="matrix(0.3162 -0.9487 0.9487 0.3162 125.3636 -363.9395)" class="st4" cx="-189.8" cy="-268.9" rx="18.1" ry="18.1"/>
				<circle class="st4" cx="-132.9" cy="-323.2" r="15.2"/>
			</g>
		</g>
	</g>
	<g id="Layer_2_1_">
	</g>
</g>
</svg>
